<svg xmlns="http://www.w3.org/2000/svg" xmlns:xlink="http://www.w3.org/1999/xlink" width="500" zoomAndPan="magnify" viewBox="0 0 375 374.999991" height="500" preserveAspectRatio="xMidYMid meet" version="1.0"><defs><clipPath id="0eb0368ee4"><path d="M 4.785156 23.289062 L 370.035156 23.289062 L 370.035156 351.789062 L 4.785156 351.789062 Z M 4.785156 23.289062 " clip-rule="nonzero"/></clipPath></defs><g clip-path="url(#0eb0368ee4)"><path fill="#663300" d="M 293.058594 87.433594 L 293.058594 153.914062 C 293.058594 157.214844 292.945312 160.511719 292.714844 163.773438 L 301.109375 163.773438 C 311.652344 163.773438 321.195312 159.515625 328.097656 152.609375 C 334.996094 145.707031 339.25 136.152344 339.25 125.605469 C 339.25 115.054688 334.996094 105.539062 328.097656 98.636719 C 321.195312 91.730469 311.652344 87.433594 301.109375 87.433594 Z M 32.882812 351.789062 L 264.960938 351.789062 L 264.960938 320.984375 L 32.882812 320.984375 Z M 148.921875 23.292969 C 185.761719 23.292969 147.808594 101.011719 135.734375 115.246094 C 104.339844 152.304688 107.0625 190.667969 116.914062 218.976562 C 86.972656 203.632812 65.929688 167.34375 65.929688 125.066406 C 65.929688 68.867188 103.074219 23.292969 148.921875 23.292969 Z M 179.742188 30.542969 C 210.332031 45.542969 231.914062 82.214844 231.914062 125.066406 C 231.914062 181.269531 194.769531 226.804688 148.921875 226.804688 C 115.109375 226.804688 133.394531 146.203125 151.683594 124.644531 C 185.953125 84.171875 186.105469 51.410156 179.742188 30.542969 Z M 287.195312 194.578125 C 280.253906 217.980469 267.566406 238.925781 250.738281 255.765625 C 224.59375 281.929688 188.558594 298.121094 148.921875 298.121094 C 109.285156 298.121094 73.210938 281.929688 47.105469 255.765625 C 21 229.644531 4.785156 193.582031 4.785156 153.914062 L 4.785156 72.011719 C 4.785156 63.535156 11.683594 56.628906 20.195312 56.628906 L 75.050781 56.628906 L 74.515625 57.472656 C 68.648438 66.792969 64.164062 76.921875 61.058594 87.433594 L 35.566406 87.433594 L 35.566406 153.914062 C 35.566406 185.066406 48.332031 213.414062 68.878906 233.976562 C 89.425781 254.539062 117.757812 267.316406 148.921875 267.316406 C 180.085938 267.316406 208.417969 254.539062 228.964844 233.976562 C 244.03125 218.902344 254.917969 199.605469 259.632812 178.082031 C 259.746094 176.742188 259.976562 175.4375 260.398438 174.210938 C 261.625 167.609375 262.238281 160.820312 262.238281 153.914062 L 262.238281 87.433594 L 236.707031 87.433594 C 233.488281 76.539062 228.847656 66.105469 222.792969 56.628906 L 301.109375 56.628906 C 320.160156 56.628906 337.375 64.339844 349.871094 76.808594 C 362.328125 89.3125 370.035156 106.574219 370.035156 125.605469 C 370.035156 144.671875 362.328125 161.894531 349.871094 174.402344 C 337.375 186.867188 320.160156 194.578125 301.109375 194.578125 Z M 287.195312 194.578125 " fill-opacity="1" fill-rule="evenodd"/></g></svg>